<svg width="24" height="24" viewBox="0 0 24 24" fill="none" xmlns="http://www.w3.org/2000/svg">
<path d="M7.20859 10.1665H5.125C4.78047 10.1665 4.5 10.4462 4.5 10.7915V12.8751C4.5 13.2196 4.78047 13.5001 5.125 13.5001H7.20859C7.55391 13.5001 7.83359 13.2196 7.83359 12.8751V10.7915C7.83359 10.4462 7.55391 10.1665 7.20859 10.1665Z" fill="#8A8D8C"/>
<path d="M7.20859 15.1665H5.125C4.78047 15.1665 4.5 15.4462 4.5 15.7915V17.8751C4.5 18.2196 4.78047 18.5001 5.125 18.5001H7.20859C7.55391 18.5001 7.83359 18.2196 7.83359 17.8751V15.7915C7.83359 15.4462 7.55391 15.1665 7.20859 15.1665Z" fill="#8A8D8C"/>
<path d="M13.0415 10.1665H10.9579C10.6126 10.1665 10.3329 10.4462 10.3329 10.7915V12.8751C10.3329 13.2196 10.6126 13.5001 10.9579 13.5001H13.0415C13.386 13.5001 13.6665 13.2196 13.6665 12.8751V10.7915C13.6665 10.4462 13.386 10.1665 13.0415 10.1665Z" fill="#8A8D8C"/>
<path d="M13.0416 15.1665H10.958C10.6127 15.1665 10.333 15.4462 10.333 15.7915V17.8751C10.333 18.2196 10.6127 18.5001 10.958 18.5001H13.0416C13.3861 18.5001 13.6666 18.2196 13.6666 17.8751V15.7915C13.6666 15.4462 13.3861 15.1665 13.0416 15.1665Z" fill="#8A8D8C"/>
<path d="M18.8749 10.1665H16.7913C16.4459 10.1665 16.1663 10.4462 16.1663 10.7915V12.8751C16.1663 13.2196 16.4459 13.5001 16.7913 13.5001H18.8749C19.2194 13.5001 19.4999 13.2196 19.4999 12.8751V10.7915C19.4999 10.4462 19.2194 10.1665 18.8749 10.1665Z" fill="#8A8D8C"/>
<path d="M19.5 3.5H4.5C3.12109 3.5 2 4.62109 2 6V18.5C2 19.8789 3.12109 21 4.5 21H19.5C20.8789 21 22 19.8789 22 18.5V6C22 4.62109 20.8789 3.5 19.5 3.5ZM20.3336 18.5C20.3336 18.9602 19.9594 19.3336 19.5 19.3336H4.5C4.03984 19.3336 3.66641 18.9594 3.66641 18.5V9.36641H20.3328V18.5H20.3336Z" fill="#8A8D8C"/>
<path d="M7.0002 2H6.1666C5.70645 2 5.33301 2.37266 5.33301 2.83359V6.16719C5.33301 6.62734 5.70566 7.00078 6.1666 7.00078H7.0002C7.46035 7.00078 7.83379 6.62813 7.83379 6.16719V2.83359C7.83379 2.37266 7.46035 2 7.0002 2Z" fill="#8A8D8C"/>
<path d="M17.8334 2H16.9999C16.5397 2 16.1663 2.37266 16.1663 2.83359V6.16719C16.1663 6.62734 16.5405 7 16.9999 7H17.8334C18.2936 7 18.667 6.62734 18.667 6.16641V2.83359C18.6663 2.37266 18.2936 2 17.8334 2Z" fill="#8A8D8C"/>
</svg>
