<svg width="21" height="20" viewBox="0 0 21 20" fill="none" xmlns="http://www.w3.org/2000/svg">
<path d="M8.28298 11.7184C6.37399 9.80944 5.94296 7.90045 5.84571 7.13562C5.81854 6.92414 5.89132 6.71205 6.04261 6.56182L7.58746 5.01766C7.8147 4.79055 7.85503 4.43661 7.6847 4.16421L5.22502 0.344855C5.03657 0.0432137 4.64964 -0.0656518 4.33156 0.0934733L0.382899 1.95315C0.125675 2.07981 -0.0256204 2.3531 0.00358452 2.63833C0.210483 4.60386 1.06739 9.43564 5.81571 14.1843C10.564 18.933 15.3951 19.7895 17.3617 19.9964C17.6469 20.0256 17.9202 19.8743 18.0469 19.6171L19.9065 15.6685C20.0651 15.3511 19.9569 14.9652 19.6565 14.7764L15.8372 12.3174C15.5649 12.1469 15.211 12.1869 14.9837 12.4139L13.4396 13.9588C13.2893 14.1101 13.0773 14.1829 12.8658 14.1557C12.1009 14.0584 10.192 13.6274 8.28298 11.7184Z" fill="#D31E4B"/>
<path d="M15.8634 10.6897C15.4825 10.6897 15.1738 10.3809 15.1738 10C15.1705 7.1447 12.8566 4.8308 10.0013 4.82757C9.6204 4.82757 9.31163 4.51879 9.31163 4.1379C9.31163 3.75701 9.6204 3.44824 10.0013 3.44824C13.6181 3.45223 16.5491 6.38323 16.5531 10C16.5531 10.3809 16.2443 10.6897 15.8634 10.6897Z" fill="#D31E4B"/>
<path d="M19.3117 10.6898C18.9308 10.6898 18.6221 10.381 18.6221 10.0001C18.6168 5.24118 14.7602 1.38465 10.0013 1.37932C9.6204 1.37932 9.31163 1.07055 9.31163 0.689662C9.31163 0.308772 9.6204 0 10.0013 0C15.5217 0.0060814 19.9953 4.47972 20.0014 10.0001C20.0014 10.183 19.9287 10.3584 19.7994 10.4878C19.6701 10.6171 19.4946 10.6898 19.3117 10.6898Z" fill="#D31E4B"/>
</svg>
