<svg width="25" height="24" viewBox="0 0 25 24" fill="none" xmlns="http://www.w3.org/2000/svg">
<path d="M9.93947 14.0619C7.64871 11.7711 7.13147 9.48037 7.01478 8.56258C6.98218 8.3088 7.06951 8.05431 7.25106 7.87402L9.10485 6.02106C9.37755 5.74853 9.42594 5.32381 9.22154 4.99692L6.26996 0.413749C6.04382 0.0517829 5.57952 -0.0788543 5.19782 0.112094L0.459474 2.34368C0.150809 2.49567 -0.0307442 2.82362 0.00430138 3.16589C0.252577 5.52451 1.28085 11.3226 6.97878 17.0209C12.6767 22.7193 18.474 23.7471 20.8338 23.9954C21.1761 24.0304 21.504 23.8489 21.656 23.5402L23.8876 18.8019C24.0778 18.421 23.9481 17.9579 23.5876 17.7314L19.0044 14.7806C18.6777 14.576 18.253 14.6241 17.9803 14.8965L16.1273 16.7503C15.9471 16.9319 15.6926 17.0192 15.4388 16.9866C14.521 16.8699 12.2302 16.3526 9.93947 14.0619Z" fill="white"/>
<path d="M19.0359 12.8276C18.5789 12.8276 18.2083 12.4571 18.2083 12C18.2045 8.57364 15.4278 5.79699 12.0014 5.79311C11.5444 5.79311 11.1739 5.42259 11.1739 4.96553C11.1739 4.50846 11.5444 4.13794 12.0014 4.13794C16.3416 4.14273 19.8587 7.65989 19.8635 12C19.8635 12.4571 19.493 12.8276 19.0359 12.8276Z" fill="white"/>
<path d="M23.1739 12.8276C22.7168 12.8276 22.3463 12.4571 22.3463 12C22.3399 6.28936 17.7121 1.66156 12.0014 1.65517C11.5444 1.65517 11.1739 1.28465 11.1739 0.827586C11.1739 0.370523 11.5444 0 12.0014 0C18.6258 0.0072976 23.9941 5.37561 24.0014 12C24.0014 12.2195 23.9143 12.43 23.7591 12.5852C23.6039 12.7404 23.3934 12.8276 23.1739 12.8276Z" fill="white"/>
</svg>
