<svg width="44" height="45" viewBox="0 0 44 45" fill="none" xmlns="http://www.w3.org/2000/svg">
<path d="M25.7322 23.1599L19.7189 26.1199C19.4735 26.2432 18.7371 26.1199 18.7371 25.7499V19.7065C18.7371 19.4599 19.5962 19.2132 19.8416 19.3365L25.6094 22.4199C25.7322 22.6665 25.9776 23.0365 25.7322 23.1599Z" fill="white"/>
<path d="M21.9277 0.83667C9.90119 0.83667 0.206329 10.58 0.206329 22.6667C0.206329 34.7533 9.90119 44.4967 21.9277 44.4967C33.9543 44.4967 43.6491 34.7533 43.6491 22.6667C43.6491 10.58 33.9543 0.83667 21.9277 0.83667ZM33.5861 25.75C33.5861 28.71 31.2544 31.0533 28.3092 31.0533H15.0554C12.2329 31.0533 9.77847 28.71 9.77847 25.75V19.46C9.77847 16.6233 12.1101 14.1567 15.0554 14.1567H28.4319C31.2544 14.1567 33.7088 16.5 33.7088 19.46V25.75H33.5861Z" fill="white"/>
</svg>
