<svg width="20" height="20" viewBox="0 0 20 20" fill="none" xmlns="http://www.w3.org/2000/svg">
<path d="M16.4795 7.39107C15.8988 5.92273 15.0521 4.56282 13.9778 3.37321C12.1187 1.32366 9.67422 0 7.75 0C7.63558 8.12643e-05 7.5227 0.0250926 7.42 0.0731196C7.3173 0.121147 7.22749 0.190916 7.15746 0.277087C7.08743 0.363259 7.03903 0.463548 7.01596 0.570278C6.99289 0.677008 6.99577 0.78735 7.02437 0.892857C7.67453 3.25893 6.32688 5.22634 4.90047 7.30893C3.71875 9.03393 2.5 10.8156 2.5 12.8571C2.5 16.7955 5.86469 20 10 20C14.1353 20 17.5 16.7955 17.5 12.8571C17.5 10.9241 17.1569 9.08527 16.4795 7.39107ZM11.5155 17.2629C11.0312 17.754 10.4242 17.8571 10 17.8571C9.57578 17.8571 8.96875 17.754 8.48453 17.2629C8.00031 16.7719 7.75 15.9929 7.75 15C7.75 13.8777 8.16344 13.0232 8.56281 12.1973C8.79484 11.7179 9.03156 11.2299 9.17219 10.7076C9.18712 10.6508 9.21649 10.5983 9.25772 10.5549C9.29895 10.5114 9.35077 10.4783 9.40861 10.4584C9.46645 10.4385 9.52854 10.4325 9.58941 10.4408C9.65028 10.4492 9.70806 10.4716 9.75766 10.5063C10.1864 10.8222 10.5676 11.1926 10.8906 11.6071C11.7423 12.6786 12.25 13.9473 12.25 15C12.25 15.9929 11.9959 16.7754 11.5155 17.2629Z" fill="#D31E4B"/>
</svg>
