<svg width="45" height="46" viewBox="0 0 45 46" fill="none" xmlns="http://www.w3.org/2000/svg">
<path d="M26.7164 22.9999C26.7164 25.2499 24.8756 27.1249 22.6667 27.1249C20.4577 27.1249 18.6169 25.2499 18.6169 22.9999C18.6169 20.7499 20.4577 18.8749 22.6667 18.8749C24.8756 18.8749 26.7164 20.7499 26.7164 22.9999Z" fill="white"/>
<path d="M27.5754 12.5001H17.3896C14.4444 12.5001 12.1127 14.8751 12.1127 17.8751V28.2501C12.1127 31.2501 14.4444 33.6251 17.3896 33.6251H27.5754C30.5206 33.6251 32.8523 31.2501 32.8523 28.2501V17.8751C32.8523 14.8751 30.5206 12.5001 27.5754 12.5001ZM22.6666 29.3751C19.2304 29.3751 16.4079 26.5001 16.4079 23.0001C16.4079 19.5001 19.2304 16.6251 22.6666 16.6251C26.1027 16.6251 28.9253 19.5001 28.9253 23.0001C28.9253 26.5001 26.1027 29.3751 22.6666 29.3751ZM29.2934 17.6251C28.4344 17.6251 27.8208 17.0001 27.8208 16.1251C27.8208 15.2501 28.4344 14.6251 29.2934 14.6251C30.1525 14.6251 30.7661 15.2501 30.7661 16.1251C30.7661 17.0001 30.1525 17.6251 29.2934 17.6251Z" fill="white"/>
<path d="M22.5439 0.875C10.5174 0.875 0.82254 10.75 0.82254 23C0.82254 35.25 10.5174 45.125 22.5439 45.125C34.5705 45.125 44.2653 35.25 44.2653 23C44.2653 10.75 34.5705 0.875 22.5439 0.875ZM35.3068 28.125C35.3068 32.375 31.8706 35.875 27.6982 35.875H17.5124C13.34 35.875 9.9038 32.375 9.9038 28.125V17.75C9.9038 13.5 13.34 10 17.5124 10H27.6982C31.8706 10 35.3068 13.5 35.3068 17.75V28.125Z" fill="white"/>
</svg>
