<svg width="24" height="24" viewBox="0 0 24 24" fill="none" xmlns="http://www.w3.org/2000/svg">
<g clip-path="url(#clip0_23_350)">
<path d="M11.6588 0.00610842C6.89049 0.173416 2.92923 3.89355 2.4716 8.64213C2.3781 9.59185 2.43223 10.512 2.59954 11.3929C2.59954 11.3929 2.6143 11.4962 2.66351 11.693C2.81113 12.3524 3.03257 12.9921 3.30813 13.5925C4.26769 15.8659 6.48698 19.6697 11.4668 23.8081C11.7719 24.0639 12.2197 24.0639 12.5297 23.8081C17.5096 19.6746 19.7289 15.8708 20.6934 13.5875C20.9739 12.9872 21.1904 12.3524 21.338 11.6881C21.3823 11.4962 21.402 11.3879 21.402 11.3879C21.5152 10.7974 21.5742 10.1922 21.5742 9.57216C21.5742 4.16911 17.1012 -0.185803 11.6588 0.00610842ZM11.9983 14.3355C9.42963 14.3355 7.34812 12.254 7.34812 9.68534C7.34812 7.11668 9.42963 5.03518 11.9983 5.03518C14.567 5.03518 16.6485 7.11668 16.6485 9.68534C16.6485 12.254 14.567 14.3355 11.9983 14.3355Z" fill="white"/>
</g>
<defs>
<clipPath id="clip0_23_350">
<rect width="24" height="24" fill="white"/>
</clipPath>
</defs>
</svg>
