<svg width="24" height="24" viewBox="0 0 24 24" fill="none" xmlns="http://www.w3.org/2000/svg">
<g clip-path="url(#clip0_3_6131)">
<path d="M23.7887 4.76825L16.5099 12.0001L23.7887 19.2319C23.9202 18.9569 24.0001 18.6529 24.0001 18.3282V5.67195C24.0001 5.34725 23.9202 5.04327 23.7887 4.76825Z" fill="white"/>
<path d="M21.8907 3.5625H2.10942C1.78472 3.5625 1.48073 3.64233 1.20572 3.77391L10.5087 13.03C11.3312 13.8526 12.6689 13.8526 13.4914 13.03L22.7944 3.77391C22.5194 3.64233 22.2154 3.5625 21.8907 3.5625Z" fill="white"/>
<path d="M0.211406 4.76825C0.0798281 5.04327 0 5.34725 0 5.67195V18.3282C0 18.6529 0.0798281 18.9569 0.211406 19.2319L7.49011 12.0001L0.211406 4.76825Z" fill="white"/>
<path d="M15.5157 12.9944L14.4857 14.0244C13.1151 15.3949 10.8849 15.3949 9.51436 14.0244L8.48442 12.9944L1.20572 20.2262C1.48073 20.3578 1.78472 20.4376 2.10942 20.4376H21.8907C22.2154 20.4376 22.5194 20.3578 22.7944 20.2262L15.5157 12.9944Z" fill="white"/>
</g>
<defs>
<clipPath id="clip0_3_6131">
<rect width="24" height="24" fill="white"/>
</clipPath>
</defs>
</svg>
