<svg width="24" height="24" viewBox="0 0 24 24" fill="none" xmlns="http://www.w3.org/2000/svg">
<g clip-path="url(#clip0_24_447)">
<path d="M9.28906 16.6782V20.5424C9.28906 20.812 9.45881 21.0517 9.71842 21.1315C9.77833 21.1515 9.84822 21.1615 9.91812 21.1615C10.1178 21.1615 10.2975 21.0716 10.4174 20.9019L12.674 17.8265L9.28906 16.6782Z" fill="#8A8D8C"/>
<path d="M21.7404 2.11965C21.5507 1.97986 21.301 1.96988 21.0914 2.06973L2.33949 11.865C2.10983 11.9749 1.98003 12.2145 2 12.4641C2.01997 12.7138 2.18971 12.9234 2.41937 13.0133L7.63155 14.7906L18.7349 5.29489L10.1478 15.6494L18.8847 18.6349C18.9546 18.6549 19.0145 18.6648 19.0844 18.6648C19.1942 18.6648 19.314 18.6349 19.4139 18.575C19.5736 18.4751 19.6835 18.3154 19.7034 18.1356L21.99 2.71876C22.03 2.4891 21.9301 2.24946 21.7404 2.11965Z" fill="#8A8D8C"/>
</g>
<defs>
<clipPath id="clip0_24_447">
<rect width="20" height="19.1712" fill="white" transform="translate(2 2)"/>
</clipPath>
</defs>
</svg>
