<svg width="24" height="24" viewBox="0 0 24 24" fill="none" xmlns="http://www.w3.org/2000/svg">
<path d="M20.9124 13.7833L20.1702 12.2572C20.0902 12.0924 20.0902 11.9037 20.1702 11.7392L20.9124 10.2131C21.3255 9.3635 20.9983 8.35063 20.1671 7.90767L18.6746 7.11159C18.5137 7.02566 18.4033 6.87293 18.3715 6.69246L18.0796 5.01945C17.9172 4.08783 17.06 3.46206 16.1285 3.59448L14.4557 3.83236C14.275 3.85814 14.0966 3.79955 13.9657 3.67221L12.7513 2.49137C12.0752 1.83396 11.0159 1.83357 10.3398 2.49137L9.12542 3.67221C8.99447 3.79955 8.81572 3.85775 8.63541 3.83236L6.96255 3.59448C6.03071 3.46206 5.17388 4.08783 5.01145 5.01945L4.71962 6.69246C4.68814 6.87293 4.57778 7.02566 4.41691 7.11159L2.92434 7.90767C2.09238 8.35102 1.76519 9.36389 2.17826 10.2135L2.92007 11.7392C3.00012 11.9037 3.00012 12.0927 2.92007 12.2572L2.17826 13.7833C1.76519 14.6329 2.09238 15.6458 2.92357 16.0888L4.41613 16.8848C4.57701 16.9708 4.68775 17.1235 4.71923 17.304L5.01106 18.977C5.15911 19.825 5.88227 20.4195 6.71385 20.4195C6.79584 20.4195 6.87861 20.4137 6.96216 20.402L8.63503 20.1641C8.81533 20.1383 8.99408 20.1969 9.12503 20.3242L10.3394 21.5051C10.6774 21.834 11.1111 21.9984 11.5452 21.9984C11.9788 21.9984 12.4129 21.834 12.7509 21.5051L13.9653 20.3242C14.0962 20.1969 14.275 20.1387 14.4553 20.1641L16.1282 20.402C17.06 20.5344 17.9168 19.9086 18.0793 18.977L18.3711 17.304C18.4026 17.1235 18.5129 16.9708 18.6742 16.8848L20.1667 16.0888C20.9979 15.6458 21.3255 14.6329 20.9124 13.7833ZM9.25016 6.80769C10.4101 6.80769 11.354 7.7565 11.354 8.9225C11.354 10.0885 10.4101 11.0373 9.25016 11.0373C8.09023 11.0373 7.14635 10.0885 7.14635 8.9225C7.14635 7.7565 8.09023 6.80769 9.25016 6.80769ZM8.16445 16.2126C8.05253 16.3251 7.90565 16.3817 7.75876 16.3817C7.61188 16.3817 7.46499 16.3255 7.35308 16.2126C7.12886 15.9872 7.12886 15.6224 7.35308 15.397L14.9263 7.78424C15.1505 7.55885 15.5134 7.55885 15.7376 7.78424C15.9618 8.00962 15.9618 8.37446 15.7376 8.59985L8.16445 16.2126ZM13.8402 17.1891C12.6802 17.1891 11.7363 16.2403 11.7363 15.0743C11.7363 13.9083 12.6802 12.9595 13.8402 12.9595C15.0001 12.9595 15.944 13.9083 15.944 15.0743C15.944 16.2403 15.0001 17.1891 13.8402 17.1891Z" fill="#D31E4B"/>
<path d="M13.8403 14.1146C13.313 14.1146 12.884 14.5459 12.884 15.0759C12.884 15.606 13.313 16.0372 13.8403 16.0372C14.3676 16.0372 14.7966 15.606 14.7966 15.0759C14.7966 14.5459 14.3676 14.1146 13.8403 14.1146Z" fill="#D31E4B"/>
<path d="M9.25026 9.88502C9.77757 9.88502 10.2066 9.45378 10.2066 8.92371C10.2066 8.39364 9.77757 7.9624 9.25026 7.9624C8.72295 7.9624 8.29395 8.39364 8.29395 8.92371C8.29395 9.45378 8.72295 9.88502 9.25026 9.88502Z" fill="#D31E4B"/>
</svg>
