<svg width="16" height="16" viewBox="0 0 16 16" fill="none" xmlns="http://www.w3.org/2000/svg">
<path d="M9.79634 5.57251L9.91794 5.84169L10.2124 5.86509L14.0128 6.16707C14.0454 6.16967 14.0765 6.18177 14.1022 6.20185C14.1279 6.22185 14.1472 6.24889 14.1577 6.27968C14.1791 6.34345 14.1608 6.41306 14.1112 6.45796C14.1111 6.45801 14.1111 6.45807 14.111 6.45812L11.0875 9.179L10.8555 9.38785L10.9412 9.68805L12.1602 13.9532C12.1602 13.9534 12.1602 13.9536 12.1603 13.9537C12.1694 13.9865 12.1684 14.0212 12.1573 14.0534C12.1461 14.0857 12.1253 14.1138 12.0977 14.1339C12.0701 14.1541 12.037 14.1653 12.0028 14.166C11.9687 14.1668 11.9353 14.1571 11.9069 14.1383C11.9068 14.1382 11.9067 14.1382 11.9066 14.1381L8.27735 11.7186L8 11.5337L7.72265 11.7186L4.09265 14.1386L4.0921 14.139C4.06432 14.1576 4.03161 14.1674 3.99819 14.1671C3.96478 14.1669 3.93222 14.1566 3.90473 14.1376C3.87724 14.1186 3.85609 14.0918 3.84403 14.0606C3.83197 14.0295 3.82956 13.9954 3.8371 13.9628L3.83718 13.9625L4.83051 9.66117L4.89382 9.38703L4.69235 9.19063L1.88368 6.45263L1.88365 6.4526C1.86072 6.43025 1.84471 6.40176 1.83754 6.37055C1.83037 6.33934 1.83235 6.30672 1.84323 6.2766C1.85412 6.24649 1.87345 6.22014 1.89891 6.20072C1.92437 6.1813 1.95489 6.16963 1.98682 6.1671L1.98694 6.16709L5.7876 5.86509L6.08208 5.84169L6.20367 5.57247L7.84834 1.93114L7.84896 1.92975C7.86201 1.90063 7.88321 1.8759 7.91 1.85856C7.93679 1.84122 7.96802 1.832 7.99994 1.83202C8.03185 1.83203 8.06308 1.84129 8.08985 1.85866C8.11662 1.87603 8.13779 1.90078 8.1508 1.92992L8.1508 1.92992L8.15167 1.93184L9.79634 5.57251Z" stroke="#FFC000"/>
</svg>
