<svg width="17" height="17" viewBox="0 0 17 17" fill="none" xmlns="http://www.w3.org/2000/svg">
<path d="M15.5457 6.50179C15.5012 6.37065 15.4192 6.25542 15.31 6.17033C15.2007 6.08524 15.0689 6.034 14.9309 6.02295L10.8927 5.70208L9.14521 1.83387C9.08956 1.70928 8.99904 1.60346 8.88457 1.52919C8.77011 1.45491 8.6366 1.41534 8.50015 1.41527C8.3637 1.41519 8.23014 1.45461 8.11559 1.52876C8.00105 1.60292 7.91041 1.70864 7.85463 1.83316L6.10717 5.70208L2.06896 6.02295C1.93328 6.0337 1.80357 6.08331 1.69535 6.16585C1.58713 6.24838 1.50498 6.36035 1.45872 6.48835C1.41247 6.61635 1.40407 6.75497 1.43454 6.88762C1.465 7.02027 1.53303 7.14133 1.6305 7.23633L4.61471 10.1455L3.55929 14.7156C3.52724 14.854 3.53752 14.9987 3.58877 15.1312C3.64003 15.2636 3.7299 15.3776 3.84674 15.4583C3.96357 15.539 4.10196 15.5827 4.24396 15.5838C4.38595 15.5849 4.52499 15.5433 4.64304 15.4643L8.49992 12.8931L12.3568 15.4643C12.4774 15.5444 12.6197 15.5857 12.7645 15.5825C12.9093 15.5793 13.0497 15.5319 13.1667 15.4466C13.2837 15.3612 13.3718 15.2421 13.4191 15.1053C13.4664 14.9684 13.4707 14.8203 13.4313 14.6809L12.1358 10.1476L15.3488 7.25616C15.5592 7.06633 15.6364 6.77024 15.5457 6.50179Z" fill="#FFC000"/>
</svg>
