<svg width="19" height="22" viewBox="0 0 19 22" fill="none" xmlns="http://www.w3.org/2000/svg">
<path d="M9.26316 3.47363C4.15684 3.47363 0 7.63048 0 12.7368C0 17.8431 4.15684 21.9999 9.26316 21.9999C14.3695 21.9999 18.5263 17.8431 18.5263 12.7368C18.5263 7.63048 14.3695 3.47363 9.26316 3.47363ZM9.26316 19.6842C5.43053 19.6842 2.31579 16.5694 2.31579 12.7368C2.31579 8.90416 5.43053 5.78942 9.26316 5.78942C13.0958 5.78942 16.2105 8.90416 16.2105 12.7368C16.2105 16.5694 13.0958 19.6842 9.26316 19.6842Z" fill="#D31E4B"/>
<path d="M9.26314 8.10526C9.89999 8.10526 10.421 8.62632 10.421 9.26316V12.7368C10.421 13.3737 9.89999 13.8947 9.26314 13.8947C8.6263 13.8947 8.10525 13.3737 8.10525 12.7368V9.26316C8.10525 8.62632 8.6263 8.10526 9.26314 8.10526ZM6.94735 0H11.5789C12.2158 0 12.7368 0.521053 12.7368 1.15789C12.7368 1.79474 12.2158 2.31579 11.5789 2.31579H6.94735C6.31051 2.31579 5.78946 1.79474 5.78946 1.15789C5.78946 0.521053 6.31051 0 6.94735 0Z" fill="#D31E4B"/>
<path d="M16.8937 5.78973L16.2105 5.10657C15.759 4.65499 15.759 3.92552 16.2105 3.47394C16.6621 3.02236 17.3916 3.02236 17.8432 3.47394L18.5263 4.1571C18.9779 4.60867 18.9779 5.33815 18.5263 5.78973C18.0748 6.24131 17.3453 6.24131 16.8937 5.78973Z" fill="#D31E4B"/>
</svg>
