<svg width="24" height="24" viewBox="0 0 24 24" fill="none" xmlns="http://www.w3.org/2000/svg">
<path d="M12 21.8799C16.9706 21.8799 21 17.8504 21 12.8799C21 7.90932 16.9706 3.87988 12 3.87988C7.02944 3.87988 3 7.90932 3 12.8799C3 17.8504 7.02944 21.8799 12 21.8799Z" fill="#8A8D8C"/>
<path d="M12 7.87988C11.45 7.87988 11 8.32988 11 8.87988V13.3799C11 13.6599 11.22 13.8799 11.5 13.8799H16C16.55 13.8799 17 13.4299 17 12.8799C17 12.3299 16.55 11.8799 16 11.8799H13V8.87988C13 8.32988 12.55 7.87988 12 7.87988Z" fill="white"/>
</svg>
