<svg width="24" height="24" viewBox="0 0 24 24" fill="none" xmlns="http://www.w3.org/2000/svg">
<path fill-rule="evenodd" clip-rule="evenodd" d="M24 12C24 18.6274 18.6274 24 12 24C5.37258 24 0 18.6274 0 12C0 5.37258 5.37258 0 12 0C18.6274 0 24 5.37258 24 12ZM10.6667 6.66667C10.6667 5.93333 11.2667 5.33333 12 5.33333C12.7333 5.33333 13.3333 5.93333 13.3333 6.66667V10.6667H17.3333C18.0667 10.6667 18.6667 11.2667 18.6667 12C18.6667 12.7333 18.0667 13.3333 17.3333 13.3333H11.3333C10.96 13.3333 10.6667 13.04 10.6667 12.6667V6.66667Z" fill="white"/>
</svg>
