<svg width="44" height="45" viewBox="0 0 44 45" fill="none" xmlns="http://www.w3.org/2000/svg">
<path d="M22.1196 0.83667C10.0931 0.83667 0.398224 10.58 0.398224 22.6667C0.398224 34.7533 10.0931 44.4967 22.1196 44.4967C34.1462 44.4967 43.841 34.7533 43.841 22.6667C43.841 10.58 34.1462 0.83667 22.1196 0.83667ZM34.1462 15.2667C34.1462 15.39 34.1462 15.5133 34.0234 15.6367C33.5326 16.3767 32.919 16.9933 32.1826 17.61C32.0599 17.61 31.9372 17.7333 31.9372 17.8567C31.9372 21.8033 30.9554 25.75 28.1329 28.5867C24.574 32.1633 19.0516 33.15 14.2656 31.9167C13.2838 31.67 12.4248 31.3 11.5657 30.8067C11.3203 30.6833 10.9521 30.4367 10.7067 30.3133C10.584 30.3133 10.584 30.19 10.584 30.19C10.584 30.19 10.7067 30.19 10.9521 30.19C12.302 30.3133 13.652 30.19 15.0019 29.6967C15.7382 29.45 17.2108 28.9567 17.7017 28.34C17.579 28.34 17.3335 28.34 17.2108 28.34C15.8609 27.97 14.1428 27.3533 13.2838 25.1333C13.2838 25.01 13.2838 24.8867 13.4065 25.01C14.511 25.1333 14.8792 25.01 15.2473 25.01C15.0019 25.01 14.7564 24.8867 14.6337 24.8867C13.0384 24.27 11.8112 22.6667 11.5657 20.8167C11.5657 20.57 11.5657 20.4467 11.5657 20.2C11.5657 20.0767 11.5657 20.0767 11.6884 20.0767C12.5475 20.57 13.5292 20.6933 13.5292 20.57C13.2838 20.4467 13.1611 20.2 12.9156 20.0767C11.443 18.72 10.9521 15.8833 12.0566 14.1567C12.1793 14.0333 12.1793 14.0333 12.302 14.1567C14.8792 17.1167 18.1926 18.5967 22.1196 19.09C22.2423 19.09 22.2423 19.09 22.2423 18.9667C22.1196 18.2267 22.1196 17.61 22.2423 16.87C22.3651 16.13 22.7332 15.5133 23.2241 14.8967C23.715 14.4033 24.2059 13.91 24.8195 13.54C25.4331 13.17 26.1694 13.0467 26.783 12.9233C27.5193 12.9233 28.2556 13.0467 28.8692 13.2933C29.3601 13.54 29.851 13.7867 30.2191 14.1567C30.3418 14.28 30.3418 14.28 30.4646 14.4033C30.4646 14.4033 30.5873 14.5267 30.71 14.4033C31.6918 14.1567 32.6735 13.7867 33.5326 13.2933H33.6553V13.4167C33.5326 13.91 33.1644 14.4033 32.919 14.8967C32.6735 15.1433 32.0599 15.8833 31.6918 16.0067C32.5508 15.76 33.4098 15.5133 34.1462 15.2667C34.1462 15.1433 34.1462 15.1433 34.1462 15.2667Z" fill="white"/>
</svg>
