<svg width="70" height="68" viewBox="0 0 70 68" fill="none" xmlns="http://www.w3.org/2000/svg">
<path d="M36.6949 44.5732C36.1336 44.6148 35.5669 44.6356 34.9949 44.6356C34.2992 44.6356 33.6115 44.6038 32.9318 44.544C29.5691 44.2464 26.3106 43.2266 23.3794 41.5546C20.4482 39.8826 17.9136 37.5977 15.9491 34.8566C15.8974 34.7829 15.8277 34.7236 15.7467 34.6841C15.6657 34.6447 15.576 34.6264 15.486 34.631C15.3959 34.6357 15.3086 34.6631 15.2321 34.7107C15.1556 34.7583 15.0924 34.8245 15.0486 34.9031L5.47114 52.0891C5.10666 52.7531 5.04946 53.55 5.43389 54.1981C5.63401 54.5195 5.91279 54.7847 6.24395 54.9687C6.57512 55.1527 6.94776 55.2495 7.32677 55.25H17.7023C18.0637 55.2367 18.4222 55.3198 18.7407 55.491C19.0592 55.6621 19.3261 55.915 19.5141 56.2235L24.6566 64.8125C24.8448 65.1312 25.1118 65.3963 25.4321 65.5823C25.7524 65.7684 26.1151 65.8692 26.4856 65.875C27.2758 65.8312 28.0938 65.3185 28.4224 64.6L37.2164 45.3223C37.2543 45.2385 37.2699 45.1464 37.2615 45.0548C37.2531 44.9633 37.2211 44.8755 37.1685 44.8C37.116 44.7245 37.0447 44.6639 36.9617 44.6242C36.8787 44.5844 36.7868 44.5669 36.6949 44.5732V44.5732Z" fill="#D31E4B"/>
<path d="M64.4481 52.0475L54.9332 34.8921C54.8892 34.8143 54.8263 34.7488 54.7502 34.7016C54.6742 34.6545 54.5874 34.6273 54.498 34.6225C54.4087 34.6178 54.3195 34.6356 54.2389 34.6744C54.1582 34.7131 54.0886 34.7716 54.0366 34.8443C51.42 38.5048 47.8039 41.3365 43.6198 43.0017C43.1061 43.2038 42.6905 43.5964 42.4599 44.0974L37.5568 54.8684C37.4937 55.006 37.461 55.1555 37.461 55.3067C37.461 55.458 37.4937 55.6075 37.5568 55.745L41.5833 64.589C41.9092 65.3075 42.7259 65.8321 43.5147 65.8759C43.8855 65.8668 44.2478 65.7629 44.5668 65.5741C44.8859 65.3852 45.1511 65.1179 45.3371 64.7975L50.4624 56.2205C50.8468 55.5763 51.5438 55.247 52.2954 55.2509H62.7734C63.6606 55.2509 64.3324 54.7888 64.6357 53.9228C64.7422 53.6153 64.7807 53.2884 64.7483 52.9646C64.7159 52.6408 64.6135 52.3279 64.4481 52.0475V52.0475Z" fill="#D31E4B"/>
<path d="M35.0002 27.625C38.5273 27.625 41.3865 24.7708 41.3865 21.25C41.3865 17.7292 38.5273 14.875 35.0002 14.875C31.4732 14.875 28.6139 17.7292 28.6139 21.25C28.6139 24.7708 31.4732 27.625 35.0002 27.625Z" fill="#D31E4B"/>
<path d="M35.0002 2.125C24.4357 2.125 15.8453 10.7034 15.8453 21.25C15.8453 31.7966 24.4397 40.375 35.0002 40.375C45.5606 40.375 54.1551 31.7953 54.1551 21.25C54.1551 10.7047 45.5633 2.125 35.0002 2.125ZM35.0002 31.875C32.8955 31.875 30.838 31.2519 29.088 30.0844C27.338 28.9169 25.9741 27.2575 25.1686 25.316C24.3632 23.3745 24.1525 21.2382 24.5631 19.1772C24.9737 17.1161 25.9872 15.2229 27.4754 13.737C28.9637 12.2511 30.8598 11.2391 32.9241 10.8292C34.9884 10.4192 37.1281 10.6296 39.0726 11.4338C41.017 12.238 42.679 13.5998 43.8484 15.3471C45.0177 17.0943 45.6418 19.1486 45.6418 21.25C45.6383 24.0668 44.516 26.7673 42.521 28.7591C40.5261 30.7509 37.8214 31.8715 35.0002 31.875V31.875Z" fill="#D31E4B"/>
</svg>
