<svg width="69" height="68" viewBox="0 0 69 68" fill="none" xmlns="http://www.w3.org/2000/svg">
<path d="M34.275 20.4C26.7651 20.4 20.6537 26.5018 20.6537 34C20.6537 41.4982 26.7651 47.6 34.275 47.6C41.7849 47.6 47.8962 41.4982 47.8962 34C47.8962 26.5018 41.7849 20.4 34.275 20.4ZM43.4344 31.4879L33.7049 41.2022C33.3249 41.5817 32.8267 41.7714 32.3291 41.7714C31.8315 41.7714 31.3334 41.5817 30.9533 41.2022L25.1156 35.3737C24.3555 34.6147 24.3555 33.3853 25.1156 32.6263C25.8757 31.8674 27.1071 31.8674 27.8672 32.6263L32.3291 37.0812L40.6828 28.7406C41.4429 27.9817 42.6743 27.9817 43.4344 28.7406C44.1945 29.4995 44.1945 30.729 43.4344 31.4879Z" fill="#D31E4B"/>
<path d="M58.6361 8.10156H53.8802C47.0164 8.10156 40.5635 5.34622 35.7103 0.583649C34.9173 -0.19455 33.6327 -0.19455 32.8397 0.583649C27.9865 5.34622 21.5335 8.10156 14.6698 8.10156H9.91391C8.79154 8.10156 7.88382 8.99234 7.88382 10.0938V34C7.88382 51.9022 21.1587 60.2294 29.9431 65.6514C30.7461 66.1458 33.4201 68 34.275 68C35.1277 68 37.7309 66.1935 38.5313 65.7002C47.3458 60.2746 60.6662 51.939 60.6662 34V10.0938C60.6662 8.99234 59.7579 8.10156 58.6361 8.10156ZM34.275 51.9297C24.1996 51.9297 16.0042 43.8867 16.0042 34C16.0042 24.1127 24.1996 16.0703 34.275 16.0703C44.3498 16.0703 52.5458 24.1127 52.5458 34C52.5458 43.8867 44.3498 51.9297 34.275 51.9297Z" fill="#D31E4B"/>
</svg>
