<svg width="69" height="68" viewBox="0 0 69 68" fill="none" xmlns="http://www.w3.org/2000/svg">
<path d="M43.5277 20.8133L38.8985 19.3567C38.4018 19.2005 37.9694 18.8867 37.6672 18.4634L34.8489 14.5179L32.031 18.4637C31.7286 18.8871 31.2965 19.2008 30.7997 19.357L26.1705 20.8136L29.0582 24.7088C29.3679 25.1267 29.533 25.634 29.5284 26.154L29.4852 31L34.088 29.4616C34.3349 29.3791 34.5918 29.3377 34.8491 29.3377C35.1062 29.3377 35.3633 29.3791 35.6102 29.4616L40.2129 31L40.1698 26.154C40.1651 25.634 40.3303 25.1267 40.6402 24.7086L43.5277 20.8133Z" fill="#D31E4B"/>
<path d="M34.8489 0C22.2107 0 11.9285 10.266 11.9285 22.8847C11.9285 31.2978 16.5 38.6641 23.2924 42.6404H23.2925C23.4241 42.7173 23.5563 42.7928 23.6895 42.8672C23.7029 42.8748 23.7165 42.8824 23.7301 42.8898C23.8584 42.9612 23.9874 43.0314 24.1171 43.1003C24.1328 43.1087 24.1485 43.1169 24.1642 43.1251C24.2962 43.1949 24.4287 43.2635 24.562 43.3307C24.5663 43.333 24.5707 43.335 24.5751 43.3372C26.3524 44.2308 28.2608 44.9011 30.264 45.3087C30.2649 45.3088 30.2657 45.309 30.2667 45.3092C30.4708 45.3507 30.6762 45.3891 30.8823 45.425C30.9178 45.4312 30.9534 45.4367 30.989 45.4427C31.1675 45.473 31.3466 45.5014 31.5266 45.5277C31.5568 45.532 31.5871 45.5362 31.6173 45.5403C31.8093 45.5676 32.002 45.5923 32.1956 45.6146C32.2117 45.6164 32.2276 45.6183 32.2437 45.62C33.0988 45.7174 33.9677 45.769 34.8485 45.769C35.7293 45.769 36.5979 45.7174 37.4531 45.6204C37.4693 45.6186 37.4856 45.6167 37.5019 45.6148C37.6953 45.5925 37.8882 45.5678 38.08 45.5406C38.1099 45.5365 38.14 45.5324 38.1698 45.528C38.3501 45.5017 38.5299 45.4731 38.7089 45.4428C38.7439 45.437 38.7791 45.4314 38.814 45.4255C39.02 45.3893 39.2251 45.3512 39.4293 45.3098C39.4304 45.3096 39.4315 45.3094 39.4325 45.3092C40.7896 45.0331 42.1028 44.6361 43.3617 44.1316C43.3619 44.1315 43.3622 44.1313 43.3625 44.1313C43.9609 43.8915 44.5466 43.6268 45.119 43.3391C45.1245 43.3363 45.1302 43.3337 45.1356 43.3309C45.2684 43.2639 45.4003 43.1955 45.5316 43.1262C45.5479 43.1177 45.5641 43.1091 45.5803 43.1006C45.7099 43.0318 45.8385 42.9616 45.9666 42.8906C45.9803 42.8829 45.9941 42.8752 46.008 42.8675C46.1409 42.7932 46.2731 42.7178 46.4042 42.641C46.4045 42.6409 46.4046 42.6408 46.4049 42.6406C53.1973 38.6642 57.7688 31.2979 57.7688 22.8847C57.7693 10.266 47.4872 0 34.8489 0ZM46.7583 21.736L43.1439 26.6114L43.1979 32.6768C43.2035 33.3108 42.902 33.9084 42.3881 34.2812C42.0481 34.5278 41.6429 34.6558 41.2332 34.6558C41.0238 34.6558 40.8133 34.6225 40.6096 34.5544L34.8489 32.6287L29.088 34.5542C28.486 34.7554 27.8233 34.6538 27.3095 34.281C26.7958 33.9084 26.4941 33.3107 26.4997 32.6766L26.5537 26.6112L22.9392 21.7358C22.5616 21.2262 22.4539 20.5659 22.6501 19.9628C22.8463 19.3598 23.3223 18.8886 23.928 18.6981L29.7222 16.875L33.2494 11.9363C33.6181 11.42 34.2139 11.1135 34.8489 11.1135C35.484 11.1135 36.0798 11.42 36.4485 11.9363L39.9756 16.875L45.7699 18.6981C46.3756 18.8889 46.8516 19.3598 47.0478 19.9628C47.244 20.5657 47.1361 21.2262 46.7583 21.736Z" fill="#D31E4B"/>
<path d="M43.3622 48.3103V52.3077C43.3622 53.3911 42.4826 54.2692 41.3977 54.2692C40.3127 54.2692 39.4331 53.3909 39.4331 52.3077V49.2999C38.573 49.4483 37.6994 49.5561 36.8137 49.6202V54.923C36.8137 56.0064 35.934 56.8846 34.8491 56.8846C33.764 56.8846 32.8845 56.0063 32.8845 54.923V49.6202C31.9987 49.5561 31.1249 49.4481 30.2648 49.2999L30.2651 52.3076C30.2652 53.3909 29.3857 54.2691 28.3006 54.2692C27.2155 54.2693 26.3361 53.3912 26.3359 52.3078L26.3355 48.3102C23.9928 47.5261 21.7934 46.4276 19.7872 45.0653V66.0385C19.7872 66.7042 20.1252 67.3244 20.6851 67.6857C21.2449 68.047 21.95 68.1002 22.558 67.8272L34.8489 62.3049L47.1401 67.8272C47.3975 67.9428 47.6722 68 47.9461 68C48.319 68 48.6902 67.894 49.0131 67.6857C49.5728 67.3243 49.9109 66.704 49.9109 66.0385V45.0653C47.9046 46.4277 45.7051 47.5265 43.3622 48.3103Z" fill="#D31E4B"/>
</svg>
