<svg width="70" height="68" viewBox="0 0 70 68" fill="none" xmlns="http://www.w3.org/2000/svg">
<path d="M34.5292 0C46.0294 0 55.3975 9.35351 55.3975 20.8142C55.3975 32.275 46.0294 41.65 34.5508 41.65C31.8085 41.65 29.0931 41.1104 26.5598 40.0619C24.0266 39.0135 21.7251 37.4768 19.787 35.5397C17.8489 33.6027 16.3122 31.3032 15.2648 28.7728C14.2173 26.2425 13.6796 23.5307 13.6824 20.7927C13.6824 9.35351 23.0506 0.0215023 34.5292 0ZM41.0331 16.2128C40.9254 14.0195 39.8486 12.3853 37.8888 11.5252C36.7689 11.0307 36.2521 10.5146 36.3813 9.246C36.4674 8.29989 35.5629 7.50431 34.5938 7.4183C34.1262 7.37636 33.6586 7.4998 33.2729 7.76706C32.8871 8.03431 32.6076 8.42839 32.4833 8.88046C32.4012 9.29803 32.3723 9.72428 32.3972 10.1491C32.4402 10.6652 32.2464 10.8802 31.7726 11.0522C29.6406 11.8263 28.2838 13.2884 27.9608 15.5677C27.6377 17.8469 28.4561 19.9972 30.6312 21.2658C31.6434 21.8679 32.8063 22.2334 33.9047 22.7065C35.003 23.1795 35.4768 23.3085 36.2305 23.6956C36.5605 23.848 36.8293 24.1071 36.9934 24.431C37.1575 24.7549 37.2075 25.1245 37.1351 25.4802C37.0875 25.8337 36.9208 26.1604 36.6625 26.4066C36.4041 26.6528 36.0695 26.8039 35.7137 26.8349C35.0259 26.9316 34.3266 26.9098 33.6462 26.7704C32.6987 26.5769 32.0957 26.0178 32.0095 24.9427C31.9879 24.6854 31.9154 24.4349 31.7963 24.2056C31.6772 23.9764 31.5139 23.773 31.3157 23.6071C31.1175 23.4412 30.8884 23.3161 30.6415 23.239C30.3947 23.1619 30.135 23.1344 29.8775 23.158C29.3518 23.202 28.8641 23.4491 28.5182 23.8466C28.1723 24.2442 27.9955 24.7609 28.0254 25.2867C28.09 27.566 29.2314 29.2432 31.2773 30.1248C32.3541 30.5978 32.7848 31.0924 32.6771 32.2965C32.5694 33.5006 33.6032 34.2747 34.6584 34.2532C35.1863 34.2479 35.6917 34.0391 36.069 33.6705C36.4462 33.3018 36.6662 32.8018 36.6828 32.275C36.6828 31.974 36.7043 31.6514 36.6828 31.3504C36.6613 31.0494 36.7689 30.7483 37.1997 30.5978C39.4825 29.8022 40.8823 28.2325 41.1407 25.7813C41.3992 23.33 40.3439 21.3948 38.1688 20.1692C37.2643 19.6746 36.2521 19.3521 35.3045 18.9435C34.3569 18.535 33.6032 18.277 32.7848 17.8684C31.9664 17.4599 31.8588 17.0298 31.9234 16.2988C31.988 15.5677 32.3756 15.0086 33.0863 14.8581C33.7046 14.6986 34.3472 14.6548 34.9815 14.7291C36.3813 14.9226 36.7905 15.3957 37.0489 16.7718C37.1388 17.2817 37.4213 17.7376 37.838 18.0457C38.2547 18.3538 38.774 18.4904 39.2887 18.4275C40.3439 18.2985 41.0761 17.3954 41.0331 16.2128Z" fill="#D31E4B"/>
<path d="M24.0565 43.35C31.0738 46.3476 38.0054 46.3268 45.0013 43.3708V45.2443C45.0227 45.8064 44.8296 46.5974 45.13 46.8889C45.4305 47.1803 46.2245 47.0346 46.8039 47.0346H52.2761C53.2418 47.0138 53.9715 47.3677 54.3577 48.2212C54.744 49.0747 54.5294 49.8241 53.7783 50.5319L36.0525 67.3312C35.1083 68.2263 33.9709 68.2263 33.0052 67.3104L15.3223 50.5527C14.5498 49.8241 14.3352 49.0122 14.7214 48.2003C15.1077 47.3885 15.8374 47.0138 16.803 47.0346H23.4985C23.9492 47.0554 24.0994 46.9305 24.0779 46.4933C24.0565 45.4733 24.0565 44.4533 24.0565 43.35Z" fill="#D31E4B"/>
</svg>
