<svg width="69" height="68" viewBox="0 0 69 68" fill="none" xmlns="http://www.w3.org/2000/svg">
<g clip-path="url(#clip0_22_252)">
<path d="M34.275 0C15.4672 0 0.221863 15.2215 0.221863 34C0.221863 52.7785 15.4672 68 34.275 68C53.0828 68 68.3281 52.7785 68.3281 34C68.3281 15.2215 53.0828 0 34.275 0ZM20.7962 18.6902L37.9865 30.296C39.1212 31.1119 39.8886 32.3411 40.1226 33.7177C40.3566 35.0942 40.0385 36.5074 39.2371 37.6516C38.4356 38.7957 37.2152 39.5788 35.8399 39.8315C34.4646 40.0843 33.0449 39.7862 31.888 39.0019C31.3797 38.644 30.9367 38.2017 30.5783 37.6942L18.9544 20.5308C18.7754 20.2748 18.6924 19.9642 18.7199 19.6533C18.7474 19.3424 18.8835 19.0511 19.1046 18.8304C19.3256 18.6097 19.6174 18.4737 19.9288 18.4463C20.2402 18.4189 20.5513 18.5017 20.8076 18.6804L20.7962 18.6902ZM34.275 62.7692C18.3944 62.7692 5.4608 49.8639 5.4608 34C5.44731 30.1307 6.22221 26.299 7.73836 22.7381C9.25452 19.1771 11.4803 15.9613 14.2802 13.2862C14.498 13.0694 14.7568 12.8981 15.0415 12.7823C15.3263 12.6664 15.6312 12.6083 15.9387 12.6113C16.2462 12.6144 16.5499 12.6785 16.8323 12.7999C17.1147 12.9214 17.3701 13.0978 17.5835 13.3188C17.7969 13.5398 17.9641 13.801 18.0754 14.0872C18.1867 14.3734 18.2397 14.6788 18.2316 14.9857C18.2234 15.2926 18.1541 15.5948 18.0278 15.8747C17.9014 16.1545 17.7205 16.4065 17.4956 16.6159C15.1461 18.8612 13.2783 21.5602 12.0059 24.5486C10.7335 27.5371 10.083 30.7527 10.094 34C10.094 47.3123 20.9419 58.1433 34.275 58.1433C47.6081 58.1433 58.456 47.3123 58.456 34C58.456 21.4674 48.8425 11.135 36.5916 9.97115V18.9615C36.5916 19.575 36.3475 20.1633 35.9131 20.5971C35.4786 21.0308 34.8894 21.2745 34.275 21.2745C33.6606 21.2745 33.0714 21.0308 32.6369 20.5971C32.2025 20.1633 31.9584 19.575 31.9584 18.9615V7.54375C31.9584 6.93031 32.2025 6.34199 32.6369 5.90823C33.0714 5.47446 33.6606 5.23077 34.275 5.23077C50.1637 5.23077 63.0892 18.1442 63.0892 34C63.0892 49.8558 50.1637 62.7692 34.275 62.7692Z" fill="#D31E4B"/>
</g>
<defs>
<clipPath id="clip0_22_252">
<rect width="68.1062" height="68" fill="white" transform="translate(0.221863)"/>
</clipPath>
</defs>
</svg>
